states
version=1
nRows=6
nColumns=105
inDegrees=no
endheader
time	gnd_pelvis/pelvis_tilt/value	gnd_pelvis/pelvis_tilt/speed	gnd_pelvis/pelvis_list/value	gnd_pelvis/pelvis_list/speed	gnd_pelvis/pelvis_rot/value	gnd_pelvis/pelvis_rot/speed	gnd_pelvis/pelvis_tx/value	gnd_pelvis/pelvis_tx/speed	gnd_pelvis/pelvis_ty/value	gnd_pelvis/pelvis_ty/speed	gnd_pelvis/pelvis_tz/value	gnd_pelvis/pelvis_tz/speed	hip_r/hip_flex_r/value	hip_r/hip_flex_r/speed	hip_r/hip_add_r/value	hip_r/hip_add_r/speed	hip_r/hip_rot_r/value	hip_r/hip_rot_r/speed	pf_r/pf_flex_r/value	pf_r/pf_flex_r/speed	pf_r/pf_rot_r/value	pf_r/pf_rot_r/speed	pf_r/pf_tilt_r/value	pf_r/pf_tilt_r/speed	pf_r/pf_tx_r/value	pf_r/pf_tx_r/speed	pf_r/pf_ty_r/value	pf_r/pf_ty_r/speed	pf_r/pf_tz_r/value	pf_r/pf_tz_r/speed	knee_r/knee_flex_r/value	knee_r/knee_flex_r/speed	knee_r/knee_add_r/value	knee_r/knee_add_r/speed	knee_r/knee_rot_r/value	knee_r/knee_rot_r/speed	knee_r/knee_tx_r/value	knee_r/knee_tx_r/speed	knee_r/knee_ty_r/value	knee_r/knee_ty_r/speed	knee_r/knee_tz_r/value	knee_r/knee_tz_r/speed	ankle_r/ankle_flex_r/value	ankle_r/ankle_flex_r/speed	subtalar_r/subt_angle_r/value	subtalar_r/subt_angle_r/speed	mtp_r/mtp_angle_r/value	mtp_r/mtp_angle_r/speed	hip_l/hip_flex_l/value	hip_l/hip_flex_l/speed	hip_l/hip_add_l/value	hip_l/hip_add_l/speed	hip_l/hip_rot_l/value	hip_l/hip_rot_l/speed	pf_l/pf_l_r3/value	pf_l/pf_l_r3/speed	pf_l/pf_l_tx/value	pf_l/pf_l_tx/speed	pf_l/pf_l_ty/value	pf_l/pf_l_ty/speed	knee_l/knee_flex_l/value	knee_l/knee_flex_l/speed	ankle_l/ankle_flex_l/value	ankle_l/ankle_flex_l/speed	subtalar_l/subt_angle_l/value	subtalar_l/subt_angle_l/speed	mtp_l/mtp_angle_l/value	mtp_l/mtp_angle_l/speed	pelvis_torso/lumbar_ext/value	pelvis_torso/lumbar_ext/speed	pelvis_torso/lumbar_latbend/value	pelvis_torso/lumbar_latbend/speed	pelvis_torso/lumbar_rot/value	pelvis_torso/lumbar_rot/speed	torso_neckhead/neck_ext/value	torso_neckhead/neck_ext/speed	torso_neckhead/neck_latbend/value	torso_neckhead/neck_latbend/speed	torso_neckhead/neck_rot/value	torso_neckhead/neck_rot/speed	acromial_r/arm_add_r/value	acromial_r/arm_add_r/speed	acromial_r/arm_flex_r/value	acromial_r/arm_flex_r/speed	acromial_r/arm_rot_r/value	acromial_r/arm_rot_r/speed	elbow_r/elbow_flex_r/value	elbow_r/elbow_flex_r/speed	radioulnar_r/pro_sup_r/value	radioulnar_r/pro_sup_r/speed	radius_hand_r/wrist_flex_r/value	radius_hand_r/wrist_flex_r/speed	acromial_l/arm_add_l/value	acromial_l/arm_add_l/speed	acromial_l/arm_flex_l/value	acromial_l/arm_flex_l/speed	acromial_l/arm_rot_l/value	acromial_l/arm_rot_l/speed	elbow_l/elbow_flex_l/value	elbow_l/elbow_flex_l/speed	radioulnar_l/pro_sup_l/value	radioulnar_l/pro_sup_l/speed	radius_hand_l/wrist_flex_l/value	radius_hand_l/wrist_flex_l/speed
      0.00000000	      0.00000000	      0.00000000	      0.00000000	      0.00000000	      0.00000000	      0.00000000	      0.00000000	      0.00000000	      0.96900000	      0.00000000	      0.00000000	      0.00000000	      0.00000000	      0.00000000	      0.00000000	      0.00000000	      0.00000000	      0.00000000	      0.00000000	      0.00000000	      0.00000000	      0.00000000	      0.00000000	      0.00000000	      0.05300000	      0.00000000	      0.00500000	      0.00000000	      0.00400000	      0.00000000	      0.00000000	      0.00000000	      0.00000000	      0.00000000	      0.00000000	      0.00000000	      0.00000000	      0.00000000	      0.00000000	      0.00000000	      0.00000000	      0.00000000	      0.00000000	      0.00000000	      0.00000000	      0.00000000	      0.00000000	      0.00000000	      0.00000000	      0.00000000	      0.00000000	      0.00000000	      0.00000000	      0.00000000	      0.00113686	      0.00000000	      0.04435000	      0.00000000	     -0.41871200	      0.00000000	      0.00000000	      0.00000000	      0.00000000	      0.00000000	      0.00000000	      0.00000000	      0.00000000	      0.00000000	      0.00000000	      0.00000000	      0.00000000	      0.00000000	      0.00000000	      0.00000000	      0.00000000	      0.00000000	      0.00000000	      0.00000000	      0.00000000	      0.00000000	      0.00000000	      0.00000000	      0.00000000	      0.00000000	      0.00000000	      0.00000000	      0.00000000	      0.00000000	      1.04719755	      0.00000000	      0.00000000	      0.00000000	      0.00000000	      0.00000000	      0.00000000	      0.00000000	      0.00000000	      0.00000000	      0.00000000	      0.00000000	      1.04719755	      0.00000000	      0.00000000	      0.00000000
      0.01000000	     -0.00000000	     -0.00000000	      0.00000000	      0.00000000	     -0.00000000	     -0.00000000	     -0.00000000	     -0.00000000	      0.96900000	     -0.00000000	      0.00000000	      0.00000000	     -0.00000000	     -0.00000000	      0.00000000	      0.00000000	      0.00000000	      0.00000000	      0.00085385	      0.19398257	     -0.00033983	     -0.02803934	     -0.00106231	     -0.10000850	      0.05323758	      0.01503929	      0.00577296	      0.14213986	      0.00408874	      0.02460967	      0.00000000	     -0.00000000	     -0.00137510	     -0.04144995	     -0.00041657	     -0.07399221	      0.00069512	      0.12197806	      0.00000150	     -0.01552821	     -0.00038872	      0.00557559	      0.00000000	      0.00000000	     -0.00000000	     -0.00000000	     -0.00000000	     -0.00000000	     -0.00000000	     -0.00000000	     -0.00000000	     -0.00000000	     -0.00000000	     -0.00000000	      0.00113686	      0.00000000	      0.04435000	      0.00000000	     -0.41871200	      0.00000000	     -0.00000000	     -0.00000000	      0.00000000	      0.00000000	     -0.00000000	     -0.00000000	      0.00000000	      0.00000000	      0.00000000	      0.00000000	     -0.00000000	     -0.00000000	      0.00000000	      0.00000000	     -0.00000000	     -0.00000000	      0.00000000	      0.00000000	     -0.00000000	     -0.00000000	     -0.00000000	     -0.00000000	      0.00000000	      0.00000000	     -0.00000000	     -0.00000000	     -0.00000000	     -0.00000000	      1.04719755	      0.00000000	      0.00000000	      0.00000000	      0.00000000	     -0.00000000	      0.00000000	      0.00000000	      0.00000000	      0.00000000	     -0.00000000	     -0.00000000	      1.04719755	      0.00000000	      0.00000000	      0.00000000
      0.02000000	     -0.00000000	     -0.00000000	      0.00000000	      0.00000000	     -0.00000000	     -0.00000000	     -0.00000000	     -0.00000000	      0.96900000	     -0.00000000	      0.00000000	      0.00000000	     -0.00000000	     -0.00000000	      0.00000000	      0.00000000	      0.00000000	      0.00000000	      0.00441179	      0.48439363	     -0.00041101	      0.03047760	     -0.00260045	     -0.24716196	      0.05299773	     -0.04246158	      0.00736152	      0.15444082	      0.00455649	      0.06250519	     -0.00000000	     -0.00000000	     -0.00170557	     -0.07292856	      0.00002990	      0.14326190	      0.00215477	      0.15858267	      0.00011946	      0.00985999	     -0.00015712	      0.01706508	     -0.00000000	     -0.00000000	     -0.00000000	     -0.00000000	     -0.00000000	     -0.00000000	     -0.00000000	     -0.00000000	     -0.00000000	     -0.00000000	     -0.00000000	     -0.00000000	      0.00113686	      0.00000000	      0.04435000	      0.00000000	     -0.41871200	      0.00000000	     -0.00000000	     -0.00000000	      0.00000000	      0.00000000	     -0.00000000	      0.00000000	      0.00000000	      0.00000000	      0.00000000	      0.00000000	     -0.00000000	     -0.00000000	      0.00000000	      0.00000000	     -0.00000000	     -0.00000000	      0.00000000	      0.00000000	     -0.00000000	     -0.00000000	     -0.00000000	     -0.00000000	      0.00000000	      0.00000000	     -0.00000000	     -0.00000000	     -0.00000000	     -0.00000000	      1.04719755	      0.00000000	      0.00000000	      0.00000000	     -0.00000000	     -0.00000000	      0.00000000	      0.00000000	      0.00000000	      0.00000000	     -0.00000000	     -0.00000000	      1.04719755	      0.00000000	      0.00000000	      0.00000000
      0.03000000	     -0.00000000	     -0.00000000	      0.00000000	      0.00000000	     -0.00000000	     -0.00000000	     -0.00000000	     -0.00000000	      0.96900000	     -0.00000000	      0.00000000	      0.00000000	     -0.00000000	     -0.00000000	      0.00000000	      0.00000000	      0.00000000	      0.00000000	      0.01018441	      0.70460242	      0.00041690	      0.11511492	     -0.00564934	     -0.28346896	      0.05307165	      0.03037647	      0.00852341	      0.05304394	      0.00510183	      0.05222618	     -0.00000000	      0.00000000	     -0.00253834	     -0.01483424	      0.00168443	      0.17490118	      0.00350021	      0.09410121	      0.00024910	      0.01824836	     -0.00014397	      0.00857708	     -0.00000000	     -0.00000000	     -0.00000000	     -0.00000000	     -0.00000000	     -0.00000000	     -0.00000000	     -0.00000000	     -0.00000000	     -0.00000000	     -0.00000000	     -0.00000000	      0.00113686	      0.00000000	      0.04435000	      0.00000000	     -0.41871200	      0.00000000	     -0.00000000	     -0.00000000	      0.00000000	      0.00000000	      0.00000000	      0.00000000	      0.00000000	      0.00000000	      0.00000000	      0.00000000	     -0.00000000	      0.00000000	      0.00000000	      0.00000000	     -0.00000000	     -0.00000000	      0.00000000	      0.00000000	     -0.00000000	     -0.00000000	     -0.00000000	     -0.00000000	      0.00000000	      0.00000000	     -0.00000000	     -0.00000000	     -0.00000000	     -0.00000000	      1.04719755	      0.00000000	      0.00000000	      0.00000000	      0.00000000	      0.00000000	      0.00000000	      0.00000000	      0.00000000	      0.00000000	     -0.00000000	     -0.00000000	      1.04719755	      0.00000000	      0.00000000	      0.00000000
      0.04000000	     -0.00000000	      0.00000000	      0.00000000	      0.00000000	     -0.00000000	     -0.00000000	     -0.00000000	     -0.00000000	      0.96900000	     -0.00000000	      0.00000000	      0.00000000	     -0.00000000	     -0.00000000	      0.00000000	      0.00000000	      0.00000000	      0.00000000	      0.01612174	      0.41724937	      0.00168995	      0.13254496	     -0.00831745	     -0.26153935	      0.05321078	      0.03054209	      0.00837807	     -0.05192267	      0.00567736	      0.04876396	      0.00000000	      0.00000000	     -0.00204818	      0.10605984	      0.00306515	      0.07787997	      0.00378403	     -0.04210435	      0.00023688	     -0.01389047	     -0.00006649	      0.00318313	     -0.00000000	      0.00000000	     -0.00000000	     -0.00000000	     -0.00000000	     -0.00000000	     -0.00000000	     -0.00000000	     -0.00000000	      0.00000000	     -0.00000000	     -0.00000000	      0.00113686	     -0.00000000	      0.04435000	      0.00000000	     -0.41871200	      0.00000000	     -0.00000000	     -0.00000000	      0.00000000	      0.00000000	      0.00000000	      0.00000000	      0.00000000	      0.00000000	      0.00000000	      0.00000000	     -0.00000000	      0.00000000	      0.00000000	     -0.00000000	     -0.00000000	     -0.00000000	      0.00000000	     -0.00000000	     -0.00000000	     -0.00000000	     -0.00000000	     -0.00000000	      0.00000000	      0.00000000	     -0.00000000	      0.00000000	     -0.00000000	     -0.00000000	      1.04719755	      0.00000000	      0.00000000	      0.00000000	      0.00000000	      0.00000000	      0.00000000	     -0.00000000	      0.00000000	      0.00000000	     -0.00000000	     -0.00000000	      1.04719755	      0.00000000	      0.00000000	     -0.00000000
      0.05000000	     -0.00000000	      0.00000000	      0.00000000	     -0.00000000	     -0.00000000	     -0.00000000	     -0.00000000	     -0.00000000	      0.96900000	     -0.00000000	      0.00000000	      0.00000000	     -0.00000000	     -0.00000000	      0.00000000	      0.00000000	      0.00000000	      0.00000000	      0.02027508	      0.42407050	      0.00292140	      0.12255820	     -0.01034704	     -0.15623478	      0.05364119	      0.01982705	      0.00779999	     -0.06477262	      0.00605161	      0.03775733	      0.00000000	      0.00000000	     -0.00049466	      0.19997588	      0.00364557	      0.05622445	      0.00299519	     -0.08733318	      0.00018813	     -0.00234353	     -0.00004329	      0.00510055	      0.00000000	      0.00000000	     -0.00000000	     -0.00000000	     -0.00000000	     -0.00000000	     -0.00000000	     -0.00000000	     -0.00000000	      0.00000000	     -0.00000000	     -0.00000000	      0.00113686	     -0.00000000	      0.04435000	      0.00000000	     -0.41871200	      0.00000000	     -0.00000000	     -0.00000000	      0.00000000	      0.00000000	      0.00000000	      0.00000000	      0.00000000	     -0.00000000	      0.00000000	      0.00000000	     -0.00000000	      0.00000000	      0.00000000	     -0.00000000	     -0.00000000	     -0.00000000	      0.00000000	      0.00000000	     -0.00000000	     -0.00000000	     -0.00000000	     -0.00000000	      0.00000000	      0.00000000	     -0.00000000	      0.00000000	     -0.00000000	     -0.00000000	      1.04719755	      0.00000000	      0.00000000	      0.00000000	      0.00000000	      0.00000000	      0.00000000	     -0.00000000	      0.00000000	      0.00000000	     -0.00000000	      0.00000000	      1.04719755	      0.00000000	      0.00000000	     -0.00000000
